G04 DipTrace 3.1.0.1*
G04 FR2311_Breakout.gtl*
%MOIN*%
G04 #@! TF.FileFunction,Copper,L1,Top*
G04 #@! TF.Part,Single*
G04 #@! TA.AperFunction,Conductor*
%ADD14C,0.012992*%
%ADD16R,0.059055X0.051181*%
G04 #@! TA.AperFunction,ComponentPad*
%ADD17R,0.066929X0.066929*%
%ADD18C,0.066929*%
%ADD19R,0.051181X0.059055*%
%ADD20R,0.070866X0.015748*%
G04 #@! TA.AperFunction,ViaPad*
%ADD21C,0.04*%
%FSLAX26Y26*%
G04*
G70*
G90*
G75*
G01*
G04 Top*
%LPD*%
X573806Y606413D2*
D14*
X595399Y584820D1*
X739706D1*
X781915Y1141215D2*
Y1211549D1*
X781315Y1212148D1*
X631980Y1141215D2*
Y1166568D1*
X677560Y1212148D1*
X781315D1*
X924652Y1146613D2*
Y1159971D1*
X874274Y1210349D1*
X779516D1*
X781315Y1212148D1*
X968052Y712773D2*
X990373D1*
X1020600Y743000D1*
Y813799D1*
X1061400Y854600D1*
Y912799D1*
X1093801Y945199D1*
Y1003400D1*
X1124400Y1034000D1*
Y1114400D1*
X1141199Y1131199D1*
Y1188199D1*
X1197000Y1244000D1*
X1194000D1*
X968052Y687182D2*
X1011581D1*
X1042199Y717801D1*
Y803000D1*
X1084199Y845000D1*
Y906799D1*
X1113600Y936199D1*
Y995000D1*
X1145400Y1026801D1*
Y1092801D1*
X1196600Y1144000D1*
X1194000D1*
X968052Y661592D2*
X1030991D1*
X1066199Y696801D1*
Y785600D1*
X1108199Y827600D1*
Y895999D1*
X1136400Y924199D1*
Y986400D1*
X1194000Y1044000D1*
X739706Y712773D2*
X710940D1*
X690755Y732958D1*
Y750350D1*
X704549Y764144D1*
X931249D1*
X1032605Y865500D1*
Y1226542D1*
X952240Y1306907D1*
X556907D1*
X494000Y1244000D1*
X739706Y687182D2*
X702945D1*
X663167Y726961D1*
Y761146D1*
X695552Y793531D1*
X918055D1*
X1005617Y881093D1*
Y1218146D1*
X942644Y1281118D1*
X589999D1*
X555814Y1246933D1*
Y1205814D1*
X494000Y1144000D1*
X739706Y661592D2*
X687753D1*
X637978Y711367D1*
Y776139D1*
X681159Y819320D1*
X903661D1*
X978029Y893688D1*
Y1205551D1*
X932449Y1251131D1*
X600194D1*
X584001Y1234938D1*
Y1186360D1*
X558213Y1160571D1*
Y1108213D1*
X494000Y1044000D1*
X968060Y533639D2*
X1183639D1*
X1194000Y544000D1*
X968052Y559230D2*
X1136230D1*
X1179600Y602600D1*
Y629600D1*
X1194000Y644000D1*
X968052Y584820D2*
X1099420D1*
X1142400Y627801D1*
Y681801D1*
X1204600Y744000D1*
X1194000D1*
X968052Y610411D2*
X1083610D1*
X1116000Y642801D1*
Y745400D1*
X1214600Y844000D1*
X1194000D1*
X968052Y636001D2*
X1056400D1*
X1090199Y669801D1*
Y764600D1*
X1136400Y810801D1*
Y884600D1*
X1195801Y944000D1*
X1194000D1*
X739706Y533639D2*
X483639D1*
X494000Y544000D1*
X739706Y559230D2*
X562970D1*
X478199Y644000D1*
X494000D1*
X739706Y636001D2*
X656369D1*
X576804Y715566D1*
X651772Y892488D2*
X738134D1*
X739333Y893688D1*
X651772Y892488D2*
Y1046621D1*
X631980Y1066412D1*
X651772Y892488D2*
X650572D1*
X600794Y942266D1*
X495734D1*
X494000Y944000D1*
X739706Y610411D2*
X627383D1*
X575605Y662189D1*
X891067Y886491D2*
X821333D1*
X814136Y893688D1*
X891067Y886491D2*
Y932671D1*
X924652Y966256D1*
Y1071810D1*
X781915Y1066412D2*
Y1060415D1*
X891067Y951262D1*
Y932671D1*
X494000Y844000D2*
X848576D1*
X891067Y886491D1*
D21*
X573806Y606413D3*
X781315Y1212148D3*
X575605Y662189D3*
X891067Y886491D3*
X576804Y715566D3*
X651772Y892488D3*
D16*
X924652Y1071810D3*
Y1146613D3*
X781915Y1066412D3*
Y1141215D3*
X631980Y1066412D3*
Y1141215D3*
D17*
X494000Y1244000D3*
D18*
Y1144000D3*
Y1044000D3*
Y944000D3*
Y844000D3*
Y744000D3*
Y644000D3*
Y544000D3*
D17*
X1194000Y1244000D3*
D18*
Y1144000D3*
Y1044000D3*
Y944000D3*
Y844000D3*
Y744000D3*
Y644000D3*
Y544000D3*
D19*
X739333Y893688D3*
X814136D3*
D20*
X739706Y712773D3*
Y687182D3*
Y661592D3*
Y636001D3*
Y610411D3*
Y584820D3*
Y559230D3*
Y533639D3*
X968060D3*
X968052Y559230D3*
Y584820D3*
Y610411D3*
Y636001D3*
Y661592D3*
Y687182D3*
Y712773D3*
M02*
