G04 DipTrace 3.1.0.1*
G04 FR2311_Breakout.gto*
%MOIN*%
G04 #@! TF.FileFunction,Legend,Top*
G04 #@! TF.Part,Single*
%ADD10C,0.009843*%
%ADD37C,0.00772*%
%FSLAX26Y26*%
G04*
G70*
G90*
G75*
G01*
G04 TopSilk*
%LPD*%
X950223Y1030450D2*
D10*
X899081D1*
X807486Y1025052D2*
X756344D1*
X657551D2*
X606409D1*
X443998Y1293963D2*
X544000D1*
Y494037D1*
X443998D1*
Y1293963D1*
X1244002D2*
X1144000D1*
Y494037D1*
X1244002D1*
Y1293963D1*
X790897Y729506D2*
Y516906D1*
X916869Y729506D2*
Y516906D1*
X790897D2*
X916869D1*
X790897Y729506D2*
X834194D1*
X873572D2*
X916869D1*
X834194D2*
G03X873572Y729506I19689J23D01*
G01*
X833840Y1093607D2*
D37*
X829087Y1091231D1*
X824278Y1086422D1*
X821902Y1081669D1*
Y1072107D1*
X824278Y1067299D1*
X829087Y1062546D1*
X833840Y1060114D1*
X841025Y1057737D1*
X853018D1*
X860148Y1060114D1*
X864957Y1062546D1*
X869710Y1067299D1*
X872142Y1072107D1*
Y1081669D1*
X869710Y1086422D1*
X864957Y1091231D1*
X860148Y1093607D1*
X872142Y1132978D2*
X821957D1*
X855395Y1109046D1*
Y1144916D1*
X691102Y1089398D2*
X686349Y1087021D1*
X681541Y1082213D1*
X679164Y1077460D1*
Y1067898D1*
X681541Y1063090D1*
X686349Y1058336D1*
X691102Y1055905D1*
X698287Y1053528D1*
X710281D1*
X717411Y1055905D1*
X722219Y1058336D1*
X726972Y1063090D1*
X729404Y1067898D1*
Y1077460D1*
X726972Y1082213D1*
X722219Y1087021D1*
X717411Y1089398D1*
X679219Y1133522D2*
Y1109646D1*
X700719Y1107269D1*
X698343Y1109646D1*
X695911Y1116831D1*
Y1123960D1*
X698343Y1131145D1*
X703096Y1135954D1*
X710281Y1138330D1*
X715034D1*
X722219Y1135954D1*
X727028Y1131145D1*
X729404Y1123960D1*
Y1116831D1*
X727028Y1109646D1*
X724596Y1107269D1*
X719842Y1104837D1*
X541168Y1090614D2*
X536415Y1088237D1*
X531606Y1083429D1*
X529230Y1078676D1*
Y1069114D1*
X531606Y1064306D1*
X536415Y1059552D1*
X541168Y1057121D1*
X548353Y1054744D1*
X560346D1*
X567476Y1057121D1*
X572285Y1059552D1*
X577038Y1064306D1*
X579470Y1069114D1*
Y1078676D1*
X577038Y1083429D1*
X572285Y1088237D1*
X567476Y1090614D1*
X536415Y1134738D2*
X531662Y1132361D1*
X529285Y1125176D1*
Y1120423D1*
X531662Y1113238D1*
X538847Y1108430D1*
X550785Y1106053D1*
X562723D1*
X572285Y1108430D1*
X577093Y1113238D1*
X579470Y1120423D1*
Y1122800D1*
X577093Y1129929D1*
X572285Y1134738D1*
X565100Y1137114D1*
X562723D1*
X555538Y1134738D1*
X550785Y1129929D1*
X548408Y1122800D1*
Y1120423D1*
X550785Y1113238D1*
X555538Y1108430D1*
X562723Y1106053D1*
X464789Y1386121D2*
Y1347874D1*
X462412Y1340689D1*
X459980Y1338313D1*
X455227Y1335881D1*
X450419D1*
X445666Y1338313D1*
X443289Y1340689D1*
X440857Y1347874D1*
Y1352627D1*
X480228Y1376504D2*
X485037Y1378936D1*
X492222Y1386065D1*
Y1335881D1*
X1208960Y1386121D2*
Y1347874D1*
X1206584Y1340689D1*
X1204152Y1338313D1*
X1199399Y1335881D1*
X1194590D1*
X1189837Y1338313D1*
X1187460Y1340689D1*
X1185028Y1347874D1*
Y1352627D1*
X1226831Y1374127D2*
Y1376504D1*
X1229208Y1381312D1*
X1231584Y1383689D1*
X1236393Y1386065D1*
X1245955D1*
X1250708Y1383689D1*
X1253084Y1381312D1*
X1255516Y1376504D1*
Y1371751D1*
X1253084Y1366942D1*
X1248331Y1359812D1*
X1224399Y1335881D1*
X1257893D1*
X735522Y972507D2*
X757022D1*
X764207Y974938D1*
X766639Y977315D1*
X769015Y982068D1*
Y986877D1*
X766639Y991630D1*
X764207Y994062D1*
X757022Y996438D1*
X735522D1*
Y946198D1*
X752269Y972507D2*
X769015Y946198D1*
X786886Y984445D2*
Y986821D1*
X789263Y991630D1*
X791640Y994006D1*
X796448Y996383D1*
X806010D1*
X810763Y994006D1*
X813139Y991630D1*
X815571Y986821D1*
Y982068D1*
X813139Y977260D1*
X808386Y970130D1*
X784455Y946198D1*
X817948D1*
X812670Y802729D2*
Y766859D1*
X815047Y759674D1*
X819855Y754921D1*
X827040Y752489D1*
X831794D1*
X838979Y754921D1*
X843787Y759674D1*
X846164Y766859D1*
Y802729D1*
X864035Y790735D2*
Y793112D1*
X866411Y797921D1*
X868788Y800297D1*
X873596Y802674D1*
X883158D1*
X887911Y800297D1*
X890288Y797921D1*
X892720Y793112D1*
Y788359D1*
X890288Y783550D1*
X885535Y776421D1*
X861603Y752489D1*
X895096D1*
M02*
