G04 DipTrace 3.1.0.1*
G04 FR2311_Breakout.gbo*
%MOIN*%
G04 #@! TF.FileFunction,Legend,Bot*
G04 #@! TF.Part,Single*
%ADD38C,0.004632*%
%FSLAX26Y26*%
G04*
G70*
G90*
G75*
G01*
G04 BotSilk*
%LPD*%
X960930Y1184533D2*
D38*
X948030D1*
X943719Y1185992D1*
X942260Y1187418D1*
X940834Y1190270D1*
Y1193155D1*
X942260Y1196007D1*
X943719Y1197466D1*
X948030Y1198892D1*
X960930D1*
Y1168748D1*
X950882Y1184533D2*
X940834Y1168748D1*
X930111Y1188844D2*
X921522Y1168748D1*
X924374Y1163011D1*
X927259Y1160126D1*
X930111Y1158700D1*
X931570D1*
X912900Y1188844D2*
X921522Y1168748D1*
X886426Y1188844D2*
Y1168748D1*
Y1184533D2*
X889278Y1187418D1*
X892163Y1188844D1*
X896441D1*
X899326Y1187418D1*
X902178Y1184533D1*
X903637Y1180222D1*
Y1177370D1*
X902178Y1173059D1*
X899326Y1170207D1*
X896441Y1168748D1*
X892163D1*
X889278Y1170207D1*
X886426Y1173059D1*
X877162Y1188844D2*
Y1168748D1*
Y1183107D2*
X872851Y1187418D1*
X869966Y1188844D1*
X865688D1*
X862803Y1187418D1*
X861377Y1183107D1*
Y1168748D1*
X822953Y1198892D2*
Y1168748D1*
X802857Y1198892D2*
Y1168748D1*
X822953Y1184533D2*
X802857D1*
X776383Y1188844D2*
Y1168748D1*
Y1184533D2*
X779234Y1187418D1*
X782120Y1188844D1*
X786397D1*
X789282Y1187418D1*
X792134Y1184533D1*
X793593Y1180222D1*
Y1177370D1*
X792134Y1173059D1*
X789282Y1170207D1*
X786397Y1168748D1*
X782120D1*
X779234Y1170207D1*
X776383Y1173059D1*
X767119Y1188844D2*
Y1168748D1*
Y1180222D2*
X765660Y1184533D1*
X762808Y1187418D1*
X759923Y1188844D1*
X755612D1*
X746348Y1180222D2*
X729137D1*
Y1183107D1*
X730563Y1185992D1*
X731989Y1187418D1*
X734874Y1188844D1*
X739185D1*
X742037Y1187418D1*
X744922Y1184533D1*
X746348Y1180222D1*
Y1177370D1*
X744922Y1173059D1*
X742037Y1170207D1*
X739185Y1168748D1*
X734874D1*
X731989Y1170207D1*
X729137Y1173059D1*
X1050672Y1035606D2*
Y1065750D1*
X1062146Y1035606D1*
X1073620Y1065750D1*
Y1035606D1*
X1021313Y1061439D2*
X1024164Y1064324D1*
X1028475Y1065750D1*
X1034212D1*
X1038523Y1064324D1*
X1041409Y1061439D1*
Y1058587D1*
X1039949Y1055702D1*
X1038523Y1054276D1*
X1035672Y1052850D1*
X1027050Y1049965D1*
X1024164Y1048539D1*
X1022738Y1047080D1*
X1021313Y1044228D1*
Y1039917D1*
X1024164Y1037065D1*
X1028475Y1035606D1*
X1034212D1*
X1038523Y1037065D1*
X1041409Y1039917D1*
X1012049Y1049965D2*
X999116D1*
X994838Y1051391D1*
X993379Y1052850D1*
X991953Y1055702D1*
Y1060013D1*
X993379Y1062865D1*
X994838Y1064324D1*
X999116Y1065750D1*
X1012049D1*
Y1035606D1*
X968330D2*
Y1065717D1*
X982689Y1045654D1*
X961167D1*
X949019Y1065717D2*
X933267D1*
X941856Y1054243D1*
X937545D1*
X934693Y1052817D1*
X933267Y1051391D1*
X931808Y1047080D1*
Y1044228D1*
X933267Y1039917D1*
X936119Y1037032D1*
X940430Y1035606D1*
X944741D1*
X949019Y1037032D1*
X950445Y1038491D1*
X951904Y1041343D1*
X913922Y1065717D2*
X918233Y1064291D1*
X921118Y1059980D1*
X922544Y1052817D1*
Y1048506D1*
X921118Y1041343D1*
X918233Y1037032D1*
X913922Y1035606D1*
X911070D1*
X906759Y1037032D1*
X903907Y1041343D1*
X902448Y1048506D1*
Y1052817D1*
X903907Y1059980D1*
X906759Y1064291D1*
X911070Y1065717D1*
X913922D1*
X903907Y1059980D2*
X921118Y1041343D1*
X874515Y1065750D2*
X893185D1*
Y1035606D1*
Y1051391D2*
X881711D1*
X865251D2*
X852351D1*
X848040Y1052850D1*
X846581Y1054276D1*
X845155Y1057128D1*
Y1060013D1*
X846581Y1062865D1*
X848040Y1064324D1*
X852351Y1065750D1*
X865251D1*
Y1035606D1*
X855203Y1051391D2*
X845155Y1035606D1*
X834433Y1058554D2*
Y1059980D1*
X833007Y1062865D1*
X831581Y1064291D1*
X828696Y1065717D1*
X822959D1*
X820107Y1064291D1*
X818681Y1062865D1*
X817222Y1059980D1*
Y1057128D1*
X818681Y1054243D1*
X821533Y1049965D1*
X835892Y1035606D1*
X815796D1*
X803647Y1065717D2*
X787895D1*
X796484Y1054243D1*
X792173D1*
X789321Y1052817D1*
X787895Y1051391D1*
X786436Y1047080D1*
Y1044228D1*
X787895Y1039917D1*
X790747Y1037032D1*
X795058Y1035606D1*
X799369D1*
X803647Y1037032D1*
X805073Y1038491D1*
X806532Y1041343D1*
X777173Y1059980D2*
X774288Y1061439D1*
X769976Y1065717D1*
Y1035606D1*
X760713Y1059980D2*
X757828Y1061439D1*
X753517Y1065717D1*
Y1035606D1*
X744253Y1065750D2*
Y1035606D1*
X734990Y1049965D2*
X722057D1*
X717779Y1051391D1*
X716320Y1052850D1*
X714894Y1055702D1*
Y1060013D1*
X716320Y1062865D1*
X717779Y1064324D1*
X722057Y1065750D1*
X734990D1*
Y1035606D1*
X705630Y1065750D2*
X698434Y1035606D1*
X691271Y1065750D1*
X684108Y1035606D1*
X676912Y1065750D1*
X667649Y1059980D2*
X664764Y1061439D1*
X660453Y1065717D1*
Y1035606D1*
X633978Y1061439D2*
X635404Y1064291D1*
X639715Y1065717D1*
X642567D1*
X646878Y1064291D1*
X649763Y1059980D1*
X651189Y1052817D1*
Y1045654D1*
X649763Y1039917D1*
X646878Y1037032D1*
X642567Y1035606D1*
X641141D1*
X636863Y1037032D1*
X633978Y1039917D1*
X632552Y1044228D1*
Y1045654D1*
X633978Y1049965D1*
X636863Y1052817D1*
X641141Y1054243D1*
X642567D1*
X646878Y1052817D1*
X649763Y1049965D1*
X651189Y1045654D1*
X623289Y1051391D2*
X610389D1*
X606078Y1052850D1*
X604618Y1054276D1*
X603193Y1057128D1*
Y1060013D1*
X604618Y1062865D1*
X606078Y1064324D1*
X610389Y1065750D1*
X623289D1*
Y1035606D1*
X613241Y1051391D2*
X603193Y1035606D1*
X1011725Y1024968D2*
Y994824D1*
X998792D1*
X994481Y996283D1*
X993055Y997709D1*
X991629Y1000561D1*
Y1004872D1*
X993055Y1007757D1*
X994481Y1009183D1*
X998792Y1010609D1*
X994481Y1012068D1*
X993055Y1013494D1*
X991629Y1016346D1*
Y1019231D1*
X993055Y1022083D1*
X994481Y1023542D1*
X998792Y1024968D1*
X1011725D1*
Y1010609D2*
X998792D1*
X982366Y1014920D2*
Y994824D1*
Y1006298D2*
X980907Y1010609D1*
X978055Y1013494D1*
X975170Y1014920D1*
X970859D1*
X961595Y1006298D2*
X944384D1*
Y1009183D1*
X945810Y1012068D1*
X947236Y1013494D1*
X950121Y1014920D1*
X954432D1*
X957284Y1013494D1*
X960169Y1010609D1*
X961595Y1006298D1*
Y1003446D1*
X960169Y999135D1*
X957284Y996283D1*
X954432Y994824D1*
X950121D1*
X947236Y996283D1*
X944384Y999135D1*
X917910Y1014920D2*
Y994824D1*
Y1010609D2*
X920762Y1013494D1*
X923647Y1014920D1*
X927924D1*
X930810Y1013494D1*
X933661Y1010609D1*
X935121Y1006298D1*
Y1003446D1*
X933661Y999135D1*
X930810Y996283D1*
X927924Y994824D1*
X923647D1*
X920762Y996283D1*
X917910Y999135D1*
X908646Y1024968D2*
Y994824D1*
X894287Y1014920D2*
X908646Y1000561D1*
X902909Y1006298D2*
X892861Y994824D1*
X876435Y1014920D2*
X879287Y1013494D1*
X882172Y1010609D1*
X883598Y1006298D1*
Y1003446D1*
X882172Y999135D1*
X879287Y996283D1*
X876435Y994824D1*
X872124D1*
X869239Y996283D1*
X866387Y999135D1*
X864928Y1003446D1*
Y1006298D1*
X866387Y1010609D1*
X869239Y1013494D1*
X872124Y1014920D1*
X876435D1*
X855664D2*
Y1000561D1*
X854238Y996283D1*
X851353Y994824D1*
X847042D1*
X844190Y996283D1*
X839879Y1000561D1*
Y1014920D2*
Y994824D1*
X826304Y1024968D2*
Y1000561D1*
X824878Y996283D1*
X821993Y994824D1*
X819141D1*
X830615Y1014920D2*
X820567D1*
X780717Y1024968D2*
Y994824D1*
X767784D1*
X763473Y996283D1*
X762047Y997709D1*
X760621Y1000561D1*
Y1004872D1*
X762047Y1007757D1*
X763473Y1009183D1*
X767784Y1010609D1*
X763473Y1012068D1*
X762047Y1013494D1*
X760621Y1016346D1*
Y1019231D1*
X762047Y1022083D1*
X763473Y1023542D1*
X767784Y1024968D1*
X780717D1*
Y1010609D2*
X767784D1*
X744195Y1014920D2*
X747047Y1013494D1*
X749932Y1010609D1*
X751358Y1006298D1*
Y1003446D1*
X749932Y999135D1*
X747047Y996283D1*
X744195Y994824D1*
X739884D1*
X736999Y996283D1*
X734147Y999135D1*
X732688Y1003446D1*
Y1006298D1*
X734147Y1010609D1*
X736999Y1013494D1*
X739884Y1014920D1*
X744195D1*
X706213D2*
Y994824D1*
Y1010609D2*
X709065Y1013494D1*
X711950Y1014920D1*
X716228D1*
X719113Y1013494D1*
X721965Y1010609D1*
X723424Y1006298D1*
Y1003446D1*
X721965Y999135D1*
X719113Y996283D1*
X716228Y994824D1*
X711950D1*
X709065Y996283D1*
X706213Y999135D1*
X696950Y1014920D2*
Y994824D1*
Y1006298D2*
X695491Y1010609D1*
X692639Y1013494D1*
X689754Y1014920D1*
X685443D1*
X658968Y1024968D2*
Y994824D1*
Y1010609D2*
X661820Y1013494D1*
X664705Y1014920D1*
X669016D1*
X671868Y1013494D1*
X674753Y1010609D1*
X676179Y1006298D1*
Y1003446D1*
X674753Y999135D1*
X671868Y996283D1*
X669016Y994824D1*
X664705D1*
X661820Y996283D1*
X658968Y999135D1*
X1029245Y1136554D2*
X1016345D1*
X1012034Y1138013D1*
X1010575Y1139439D1*
X1009149Y1142291D1*
Y1145176D1*
X1010575Y1148028D1*
X1012034Y1149487D1*
X1016345Y1150913D1*
X1029245D1*
Y1120769D1*
X1019197Y1136554D2*
X1009149Y1120769D1*
X992722Y1140865D2*
X995574Y1139439D1*
X998459Y1136554D1*
X999885Y1132243D1*
Y1129391D1*
X998459Y1125080D1*
X995574Y1122228D1*
X992722Y1120769D1*
X988411D1*
X985526Y1122228D1*
X982674Y1125080D1*
X981215Y1129391D1*
Y1132243D1*
X982674Y1136554D1*
X985526Y1139439D1*
X988411Y1140865D1*
X992722D1*
X971952D2*
X966215Y1120769D1*
X960478Y1140865D1*
X954741Y1120769D1*
X949004Y1140865D1*
X922529D2*
Y1120769D1*
Y1136554D2*
X925381Y1139439D1*
X928266Y1140865D1*
X932544D1*
X935429Y1139439D1*
X938281Y1136554D1*
X939740Y1132243D1*
Y1129391D1*
X938281Y1125080D1*
X935429Y1122228D1*
X932544Y1120769D1*
X928266D1*
X925381Y1122228D1*
X922529Y1125080D1*
X913266Y1140865D2*
Y1120769D1*
Y1135128D2*
X908955Y1139439D1*
X906069Y1140865D1*
X901792D1*
X898907Y1139439D1*
X897481Y1135128D1*
Y1120769D1*
X859056Y1150913D2*
Y1129391D1*
X857631Y1125080D1*
X854745Y1122228D1*
X850434Y1120769D1*
X847583D1*
X843272Y1122228D1*
X840386Y1125080D1*
X838960Y1129391D1*
Y1150913D1*
X829697Y1140865D2*
Y1120769D1*
Y1135128D2*
X825386Y1139439D1*
X822501Y1140865D1*
X818223D1*
X815338Y1139439D1*
X813912Y1135128D1*
Y1120769D1*
X804648Y1150913D2*
X803222Y1149487D1*
X801763Y1150913D1*
X803222Y1152372D1*
X804648Y1150913D1*
X803222Y1140865D2*
Y1120769D1*
X792500Y1140865D2*
X783878Y1120769D1*
X775289Y1140865D1*
X766025Y1132243D2*
X748814D1*
Y1135128D1*
X750240Y1138013D1*
X751666Y1139439D1*
X754551Y1140865D1*
X758862D1*
X761714Y1139439D1*
X764599Y1136554D1*
X766025Y1132243D1*
Y1129391D1*
X764599Y1125080D1*
X761714Y1122228D1*
X758862Y1120769D1*
X754551D1*
X751666Y1122228D1*
X748814Y1125080D1*
X739551Y1140865D2*
Y1120769D1*
Y1132243D2*
X738092Y1136554D1*
X735240Y1139439D1*
X732355Y1140865D1*
X728044D1*
X702995Y1136554D2*
X704421Y1139439D1*
X708732Y1140865D1*
X713043D1*
X717354Y1139439D1*
X718780Y1136554D1*
X717354Y1133702D1*
X714469Y1132243D1*
X707306Y1130817D1*
X704421Y1129391D1*
X702995Y1126506D1*
Y1125080D1*
X704421Y1122228D1*
X708732Y1120769D1*
X713043D1*
X717354Y1122228D1*
X718780Y1125080D1*
X693732Y1150913D2*
X692306Y1149487D1*
X690847Y1150913D1*
X692306Y1152372D1*
X693732Y1150913D1*
X692306Y1140865D2*
Y1120769D1*
X677272Y1150913D2*
Y1126506D1*
X675846Y1122228D1*
X672961Y1120769D1*
X670109D1*
X681583Y1140865D2*
X671535D1*
X659386D2*
X650798Y1120769D1*
X653649Y1115032D1*
X656534Y1112147D1*
X659386Y1110721D1*
X660846D1*
X642175Y1140865D2*
X650798Y1120769D1*
M02*
